<svg width="1024" height="1024" viewBox="0 0 1024 1024" fill="none" xmlns="http://www.w3.org/2000/svg">
<path d="M512 1024C794.77 1024 1024 794.77 1024 512C1024 229.23 794.77 0 512 0C229.23 0 0 229.23 0 512C0 794.77 229.23 1024 512 1024Z" fill="#008066"/>
<path d="M168.023 512C168.023 443.968 188.197 377.464 225.994 320.897C263.79 264.331 317.512 220.243 380.365 194.208C443.219 168.173 512.381 161.361 579.106 174.634C644.367 187.615 704.429 219.238 752.041 265.628L699.815 317.854H843.314V174.355L793.826 223.843C737.947 169.192 667.356 131.942 590.633 116.681C512.447 101.129 431.404 109.111 357.754 139.618C284.103 170.125 221.153 221.786 176.864 288.07C132.575 354.353 108.936 432.282 108.936 512H168.023Z" fill="white"/>
<path d="M798.005 703.103C835.801 646.536 855.975 580.032 855.975 512H915.063C915.063 591.719 891.424 669.647 847.135 735.93C802.846 802.214 739.895 853.875 666.245 884.382C592.595 914.889 511.552 922.871 433.366 907.319C356.643 892.058 286.052 854.808 230.173 800.157L180.685 849.645V706.146H324.184L271.958 758.372C319.57 804.762 379.633 836.385 444.893 849.367C511.618 862.639 580.78 855.827 643.633 829.792C706.487 803.757 760.208 759.669 798.005 703.103Z" fill="white"/>
<path d="M605.137 666.532C624.643 648.247 634.396 625.474 634.396 598.213C634.396 579.928 629.947 564.469 621.05 551.836C612.494 538.871 601.544 528.066 588.198 519.422C574.851 510.446 554.148 498.312 526.087 483.019C506.239 472.713 491.182 464.568 480.915 458.584C470.992 452.267 462.265 444.288 454.736 434.647C447.208 425.006 443.444 413.703 443.444 400.737C443.444 382.12 450.288 368.323 463.976 359.347C477.665 350.038 495.117 345.384 516.334 345.384C527.969 345.384 538.064 346.714 546.62 349.374C555.517 352.033 562.532 355.524 567.665 359.846L579.471 417.692H610.783L613.35 337.904C585.289 326.933 557.57 320.783 530.193 319.453V265.097H493.748V319.952C463.634 323.276 438.995 333.083 419.831 349.374C401.01 365.664 391.599 385.943 391.599 410.212C391.599 428.829 395.364 444.953 402.892 458.584C410.42 471.882 420.687 483.351 433.691 492.992C446.695 502.634 463.805 512.773 485.022 523.412C489.128 525.406 492.208 527.069 494.261 528.399C514.11 538.372 529.68 546.85 540.973 553.831C552.608 560.813 562.019 568.958 569.205 578.266C576.734 587.242 580.498 597.715 580.498 609.683C580.498 630.295 573.996 645.92 560.992 656.559C548.331 667.197 529.509 672.516 504.528 672.516C473.045 672.516 449.603 666.2 434.204 653.566L423.425 591.73H391.086L387.493 677.004C396.39 680.994 410.078 685.316 428.558 689.97C447.379 694.624 466.885 697.616 487.075 698.946L486.562 756.793H522.494L523.007 698.447C558.597 695.455 585.973 684.817 605.137 666.532Z" fill="white"/>
</svg>
